<svg width="987" height="120" viewBox="0 0 987 120" fill="none" xmlns="http://www.w3.org/2000/svg">
<path d="M2 62C8.43299 62.5848 14.6208 64.1651 21.2222 64.5556C117.942 70.2756 214.298 68.0076 311.111 65.4444C382.107 63.5648 452.878 62.8286 523.889 64.3333C601.741 65.983 679.507 68.6432 757.389 68.3333C784.837 68.2241 812.351 68.0618 839.778 66.7778C846.781 66.4499 854.821 66.4342 861.778 64.7778C882.122 59.934 904.299 61.021 925.111 59.7778C943.898 58.6555 962.066 57.2891 980.333 52.7222C980.843 52.5947 987.612 52 984 52" stroke="black" stroke-width="3" stroke-linecap="round"/>
<path d="M20.2191 118C19.5352 94.4239 20.3905 71.0927 23.6625 47.7219C25.684 33.2826 27.6141 17.3225 32.9331 3.67363C35.4986 -2.9097 39.611 11.9779 40.0317 13.0809C47.0896 31.582 50.3465 51.1606 56.401 69.9674C58.0851 75.1988 60.4968 83.877 65.0359 87.4539C71.2051 92.3154 83.0215 66.5102 84.5307 63.8804C88.2584 57.3845 92.2063 50.1272 95.9732 43.627C96.8459 42.1212 101.512 31.9687 104.449 31.2868C108.423 30.3644 117.445 63.6276 118.488 66.4812C121.021 73.4183 125.156 91.1422 132.314 95.2011C135.059 96.7575 141.362 91.7377 142.803 90.8295C151.652 85.2527 160.247 79.1622 169.82 74.9478C186.59 67.5652 203.33 65.5098 220.041 73.8964C229.506 78.647 238.412 85.0321 246.422 92.1023C252.293 97.2842 257.106 103.702 263.109 108.703C274.189 117.935 282.393 99.7823 287.954 91.9916C303.116 70.7505 318.884 48.5205 346.862 48.718C361.016 48.8179 371.355 63.5317 382.356 70.9082C400.414 83.0167 415.261 78.1102 433.953 70.1888C449.234 63.7131 455.758 60.591 471.989 55.0264C486.784 49.9543 504.325 43.458 520.302 46.5045C531.545 48.6482 538.895 57.2831 546.154 65.4851C548.83 68.5085 555.298 74.5561 559.716 71.5169C564.154 68.4635 567.906 62.2143 571.688 58.5127C578.111 52.2255 585.256 46.2946 593.62 43.0736C601.345 40.0985 608.068 43.5676 614.651 47.7219C620.54 51.4386 626.053 55.738 631.656 59.8961C634.678 62.1392 638.204 65.4461 641.986 66.3152C649.062 67.9413 657.839 62.1885 663.758 59.1214C686.218 47.4842 707.717 47.0112 732.308 52.8129C752.423 57.5586 768.192 67.2509 782.846 82.0309C792.251 91.5161 804.267 108.019 819.081 106.435C833.14 104.931 846.316 91.9166 856.905 83.2483C863.59 77.776 873.03 67.0319 882.651 68.418C885.431 68.8186 887.766 70.9454 889.749 67.8093C898.089 54.6252 898.973 37.7178 905.907 23.8717C909.736 16.2257 916.945 25.3601 920.793 28.5753C936.293 41.5285 952.02 53.5703 969 64.2124" stroke="black" stroke-width="3" stroke-linecap="round"/>
</svg>
