<svg width="655" height="120" viewBox="0 0 655 120" fill="none" xmlns="http://www.w3.org/2000/svg">
<path d="M2 118C7.85126 117.269 10.4894 94.8722 11.4444 90.8889C17.4565 65.8122 25.4668 41.2665 31.5556 16.2222C31.7694 15.3427 33.4958 2.28067 35.4444 2.33333C38.9 2.42673 40.7106 16.8493 41 18.3333C45.926 43.5901 46.2746 69.9284 52.2222 94.8889C52.6228 96.57 55.614 110.838 59.5556 110.222C64.4817 109.453 70.9562 91.1876 72.6667 87.7778C77.437 78.2681 81.8526 68.5983 86.8889 59.2222C87.4283 58.218 89.788 52.0828 91.2222 51.2222C95.5685 48.6145 100.502 78.4248 100.778 79.8889C101.958 86.1663 103.222 92.4204 104.556 98.6667C105.858 104.766 108.65 94.0557 109.278 92.5L109.52 91.8987C114.505 79.549 119.251 67.7898 127 56.7778C131.102 50.9491 136.669 42.6735 142.778 38.4444C146.751 35.6938 155.067 62.2858 156.444 65.6111L156.523 65.801C158.634 70.8981 161.114 76.8884 167.5 75.7778C177.738 73.9972 187.39 65.7729 195.389 59.8889C208.326 50.3725 220.571 37.8445 235.222 30.8889C246.888 25.3504 254.824 80.4856 268 85.1111C277.746 88.5326 293.146 74.6758 299.111 68.2222C299.948 67.3166 301.279 64.3773 302.778 64.2222C305.004 63.992 308.725 72.2156 309.944 73.7222C315.997 81.1994 317.51 79.6513 324.061 72.9442L324.278 72.7222C333.61 63.1707 343.392 54.0239 354.222 46.1667C359.774 42.1392 368.499 35.3333 376 35.3333C384.949 35.3333 385.333 64.5379 386.056 69.7778C386.489 72.9193 388.028 93.6624 395.222 92.5556C400.45 91.7513 407.379 81.3474 410.222 78.2778C423.101 64.3723 436.402 50.7039 450.833 38.3889C452.21 37.2138 463.544 26.2773 467.278 28.6667C471.041 31.0751 471.812 43.3747 472.444 46.8889C474.321 57.3232 475.583 67.8754 476.389 78.4444C476.651 81.8776 475.531 90.0071 477.167 93.2778C477.6 94.1448 478.585 91.9421 479.167 91.1667C482.122 87.2257 483.079 85.8673 487 82.0556C500.363 69.0639 516.759 58.8882 532.111 48.4444C532.801 47.9748 542.376 40.0751 544.444 40.4444C546.884 40.8801 548.796 50.2946 549.222 51.6667C553.395 65.1134 556.955 78.7385 561 92.2222C562.398 96.8822 563.24 90.7417 564.222 88.3333C569.904 74.3984 576.892 60.833 586.444 49.1111C595.966 37.4272 607.963 28.2264 620.556 20.1111C626.849 16.0552 628.404 13.9145 630.722 21.5556C633.497 30.7006 635.904 40.0174 637.778 49.3889C638.701 54.0056 638.853 59.4283 641 63.7222C642.732 67.1868 642.689 68.0704 644.222 65.3333C647.232 59.9585 650.479 55.2487 652 49.1667C652.677 46.457 653 50.2212 653 51" stroke="black" stroke-width="3" stroke-linecap="round"/>
</svg>
